<mxfile host="app.diagrams.net" modified="2023-01-18T15:10:24.614Z" agent="5.0 (Macintosh; Intel Mac OS X 10_15_7) AppleWebKit/537.36 (KHTML, like Gecko) Chrome/108.0.0.0 Safari/537.36" version="20.8.5" etag="7GdPAl3NoMpeaASuYpYh" type="github">
  <diagram id="Q--KSRCFggLA7OU_PP-0" name="페이지-1">
    <mxGraphModel dx="1041" dy="989" grid="1" gridSize="10" guides="1" tooltips="1" connect="1" arrows="1" fold="1" page="1" pageScale="1" pageWidth="827" pageHeight="1169" math="0" shadow="0">
      <root>
        <mxCell id="0" />
        <mxCell id="1" parent="0" />
        <mxCell id="_Go22YW_cyLlZwOPECUk-1" value="&lt;font color=&quot;#ff2626&quot;&gt;주소&lt;/font&gt;" style="rounded=0;whiteSpace=wrap;html=1;" vertex="1" parent="1">
          <mxGeometry x="40" y="180" width="120" height="60" as="geometry" />
        </mxCell>
        <mxCell id="_Go22YW_cyLlZwOPECUk-2" value="Shape" style="text;html=1;strokeColor=none;fillColor=none;align=center;verticalAlign=middle;whiteSpace=wrap;rounded=0;" vertex="1" parent="1">
          <mxGeometry x="70" y="240" width="60" height="30" as="geometry" />
        </mxCell>
        <mxCell id="_Go22YW_cyLlZwOPECUk-5" value="" style="html=1;shadow=0;dashed=0;align=center;verticalAlign=middle;shape=mxgraph.arrows2.arrow;dy=0.6;dx=40;direction=south;notch=0;fontColor=#FF2626;" vertex="1" parent="1">
          <mxGeometry x="65" y="280" width="65" height="70" as="geometry" />
        </mxCell>
        <mxCell id="_Go22YW_cyLlZwOPECUk-7" value="Circle&lt;br&gt;=&amp;gt; 자료형의 변환" style="text;html=1;strokeColor=none;fillColor=none;align=center;verticalAlign=middle;whiteSpace=wrap;rounded=0;" vertex="1" parent="1">
          <mxGeometry x="40" y="370" width="120" height="30" as="geometry" />
        </mxCell>
        <mxCell id="_Go22YW_cyLlZwOPECUk-9" value="ref" style="text;html=1;strokeColor=none;fillColor=none;align=center;verticalAlign=middle;whiteSpace=wrap;rounded=0;" vertex="1" parent="1">
          <mxGeometry x="70" y="150" width="60" height="30" as="geometry" />
        </mxCell>
        <mxCell id="_Go22YW_cyLlZwOPECUk-10" value="" style="rounded=0;whiteSpace=wrap;html=1;" vertex="1" parent="1">
          <mxGeometry x="230" y="80" width="280" height="230" as="geometry" />
        </mxCell>
        <mxCell id="_Go22YW_cyLlZwOPECUk-11" value="circle extends Shape" style="text;html=1;strokeColor=none;fillColor=none;align=center;verticalAlign=middle;whiteSpace=wrap;rounded=0;" vertex="1" parent="1">
          <mxGeometry x="260" y="70" width="170" height="30" as="geometry" />
        </mxCell>
        <mxCell id="_Go22YW_cyLlZwOPECUk-12" value="Shape" style="text;html=1;strokeColor=none;fillColor=none;align=center;verticalAlign=middle;whiteSpace=wrap;rounded=0;" vertex="1" parent="1">
          <mxGeometry x="270" y="120" width="60" height="30" as="geometry" />
        </mxCell>
        <mxCell id="_Go22YW_cyLlZwOPECUk-13" value="&lt;font color=&quot;#ff2626&quot;&gt;abstact void draw();&lt;/font&gt;" style="rounded=0;whiteSpace=wrap;html=1;" vertex="1" parent="1">
          <mxGeometry x="270" y="140" width="190" height="60" as="geometry" />
        </mxCell>
      </root>
    </mxGraphModel>
  </diagram>
</mxfile>
